HIERARCHY
ROOT hip
{
  OFFSET 52.2303 79.3905 48.202
  CHANNELS 6 Xposition Yposition Zposition Zrotation Xrotation Yrotation
  JOINT abdomen
  {
    OFFSET 0 20.6881 -0.73152
    CHANNELS 3 Zrotation Xrotation Yrotation
    JOINT chest
    {
      OFFSET 0 11.7043 -0.48768
      CHANNELS 3 Zrotation Xrotation Yrotation
      JOINT neck
      {
        OFFSET 0 22.1894 -2.19456
        CHANNELS 3 Zrotation Xrotation Yrotation
        JOINT head
        {
          OFFSET -0.24384 7.07133 1.2192
          CHANNELS 3 Zrotation Xrotation Yrotation
          JOINT leftEye
          {
            OFFSET 4.14528 8.04674 8.04672
            CHANNELS 3 Zrotation Xrotation Yrotation
            End Site
            {
              OFFSET 1 0 0
            }
          }
          JOINT rightEye
          {
            OFFSET -3.6576 8.04674 8.04672
            CHANNELS 3 Zrotation Xrotation Yrotation
            End Site
            {
              OFFSET 1 0 0
            }
          }
        }
      }
      JOINT rCollar
      {
        OFFSET -2.68224 19.2634 -4.8768
        CHANNELS 3 Zrotation Xrotation Yrotation
        JOINT rShldr
        {
          OFFSET -8.77824 -1.95073 1.46304
          CHANNELS 3 Zrotation Xrotation Yrotation
          JOINT rForeArm
          {
            OFFSET -28.1742 -1.7115 0.48768
            CHANNELS 3 Zrotation Xrotation Yrotation
            JOINT rHand
            {
              OFFSET -22.5879 0.773209 7.07136
              CHANNELS 3 Zrotation Xrotation Yrotation
              JOINT rThumb1
              {
                OFFSET -1.2192 -0.487915 3.41376
                CHANNELS 3 Zrotation Xrotation Yrotation
                JOINT rThumb2
                {
                  OFFSET -3.37035 -0.52449 3.41376
                  CHANNELS 3 Zrotation Xrotation Yrotation
                  End Site
                  {
                    OFFSET -1.78271 -1.18214 1.43049
                  }
                }
              }
              JOINT rIndex1
              {
                OFFSET -7.75947 0.938293 5.60832
                CHANNELS 3 Zrotation Xrotation Yrotation
                JOINT rIndex2
                {
                  OFFSET -2.54057 -0.884171 1.56538
                  CHANNELS 3 Zrotation Xrotation Yrotation
                  End Site
                  {
                    OFFSET -1.62519 -0.234802 1.16502
                  }
                }
              }
              JOINT rMid1
              {
                OFFSET -8.24714 1.18213 3.41376
                CHANNELS 3 Zrotation Xrotation Yrotation
                JOINT rMid2
                {
                  OFFSET -3.10165 -0.590103 1.0647
                  CHANNELS 3 Zrotation Xrotation Yrotation
                  End Site
                  {
                    OFFSET -2.48547 -0.328903 0.83742
                  }
                }
              }
              JOINT rRing1
              {
                OFFSET -8.82822 0.546677 1.51678
                CHANNELS 3 Zrotation Xrotation Yrotation
                JOINT rRing2
                {
                  OFFSET -2.60934 -0.819778 -0.0198488
                  CHANNELS 3 Zrotation Xrotation Yrotation
                  End Site
                  {
                    OFFSET -2.33842 -0.294052 0.168128
                  }
                }
              }
              JOINT rPinky1
              {
                OFFSET -8.27202 -0.0477905 -0.4584
                CHANNELS 3 Zrotation Xrotation Yrotation
                JOINT rPinky2
                {
                  OFFSET -1.82734 -0.647385 -0.700984
                  CHANNELS 3 Zrotation Xrotation Yrotation
                  End Site
                  {
                    OFFSET -1.69225 -0.51767 -0.607171
                  }
                }
              }
            }
          }
        }
      }
      JOINT lCollar
      {
        OFFSET 2.68224 19.2634 -4.8768
        CHANNELS 3 Zrotation Xrotation Yrotation
        JOINT lShldr
        {
          OFFSET 8.77824 -1.95073 1.46304
          CHANNELS 3 Zrotation Xrotation Yrotation
          JOINT lForeArm
          {
            OFFSET 28.1742 -1.7115 0.48768
            CHANNELS 3 Zrotation Xrotation Yrotation
            JOINT lHand
            {
              OFFSET 22.5879 0.773209 7.07136
              CHANNELS 3 Zrotation Xrotation Yrotation
              JOINT lThumb1
              {
                OFFSET 1.2192 -0.487915 3.41376
                CHANNELS 3 Zrotation Xrotation Yrotation
                JOINT lThumb2
                {
                  OFFSET 3.37035 -0.52449 3.41376
                  CHANNELS 3 Zrotation Xrotation Yrotation
                  End Site
                  {
                    OFFSET 1.78271 -1.18214 1.43049
                  }
                }
              }
              JOINT lIndex1
              {
                OFFSET 7.75947 0.938293 5.60832
                CHANNELS 3 Zrotation Xrotation Yrotation
                JOINT lIndex2
                {
                  OFFSET 2.54057 -0.884171 1.56538
                  CHANNELS 3 Zrotation Xrotation Yrotation
                  End Site
                  {
                    OFFSET 1.62519 -0.234802 1.16502
                  }
                }
              }
              JOINT lMid1
              {
                OFFSET 8.24714 1.18213 3.41376
                CHANNELS 3 Zrotation Xrotation Yrotation
                JOINT lMid2
                {
                  OFFSET 3.10165 -0.590103 1.0647
                  CHANNELS 3 Zrotation Xrotation Yrotation
                  End Site
                  {
                    OFFSET 2.48547 -0.328903 0.83742
                  }
                }
              }
              JOINT lRing1
              {
                OFFSET 8.82822 0.546677 1.51678
                CHANNELS 3 Zrotation Xrotation Yrotation
                JOINT lRing2
                {
                  OFFSET 2.60934 -0.819778 -0.0198488
                  CHANNELS 3 Zrotation Xrotation Yrotation
                  End Site
                  {
                    OFFSET 2.33842 -0.294052 0.168128
                  }
                }
              }
              JOINT lPinky1
              {
                OFFSET 8.27202 -0.0477905 -0.4584
                CHANNELS 3 Zrotation Xrotation Yrotation
                JOINT lPinky2
                {
                  OFFSET 1.82734 -0.647385 -0.700984
                  CHANNELS 3 Zrotation Xrotation Yrotation
                  End Site
                  {
                    OFFSET 1.69225 -0.51767 -0.607171
                  }
                }
              }
            }
          }
        }
      }
    }
  }
  JOINT rButtock
  {
    OFFSET -8.77824 4.35084 1.2192
    CHANNELS 3 Zrotation Xrotation Yrotation
    JOINT rThigh
    {
      OFFSET 0 -1.70687 -2.19456
      CHANNELS 3 Zrotation Xrotation Yrotation
      JOINT rShin
      {
        OFFSET 0 -36.8199 0.73152
        CHANNELS 3 Zrotation Xrotation Yrotation
        JOINT rFoot
        {
          OFFSET 0.73152 -45.1104 -5.12064
          CHANNELS 3 Zrotation Xrotation Yrotation
          End Site
          {
            OFFSET -1.1221 -3.69964 12.103
          }
        }
      }
    }
  }
  JOINT lButtock
  {
    OFFSET 8.77824 4.35084 1.2192
    CHANNELS 3 Zrotation Xrotation Yrotation
    JOINT lThigh
    {
      OFFSET 0 -1.70687 -2.19456
      CHANNELS 3 Zrotation Xrotation Yrotation
      JOINT lShin
      {
        OFFSET 0 -36.8199 0.73152
        CHANNELS 3 Zrotation Xrotation Yrotation
        JOINT lFoot
        {
          OFFSET -0.73152 -45.1104 -5.12064
          CHANNELS 3 Zrotation Xrotation Yrotation
          End Site
          {
            OFFSET 1.1221 -3.69964 12.103
          }
        }
      }
    }
  }
}
MOTION
Frames:	8
Frame Time:	0.00833333
51.7899 79.7947 38.3916 3.1313 13.7727 -14.5174 -4.01038 -25.8748 -8.52551 1.84945 10.4457 -2.51578 0.533023 2.0441 5.30272 -1.38429 3.87786 10.2002 -0 0 0 -0 0 0 -8.53838e-014 -2.79266e-013 4.11687e-013 64.9241 45.4675 -6.58601 23.2824 -50.2698 -105.481 -0.142272 10.6912 1.52041 6.88624e-010 -9.99633e-009 -2.38208e-009 1.1667e-009 -1.73491e-008 -4.12712e-009 6.88631e-010 -9.99634e-009 -2.38208e-009 7.73091 5.47488 0.417314 6.88623e-010 -9.99634e-009 -2.38208e-009 2.90554 0.965183 0.102902 6.88628e-010 -9.99633e-009 -2.38207e-009 10.2786 0.731801 0.0259123 6.8862e-010 -9.99633e-009 -2.38206e-009 2.22167 -0.733487 -0.20892 -8.54501e-014 -2.7927e-013 4.11579e-013 -21.8668 37.5007 -62.404 17.0327 -55.3278 -121.01 4.62074 -50.4347 9.79329 2.28259e-009 7.50016e-010 -1.5975e-009 3.99819e-009 1.36339e-009 -2.64763e-009 2.28258e-009 7.50012e-010 -1.59749e-009 -7.73091 5.47488 -0.417314 2.28258e-009 7.50012e-010 -1.59749e-009 -2.90554 0.965183 -0.102902 2.28258e-009 7.50013e-010 -1.5975e-009 -10.2786 0.731801 -0.0259123 2.2826e-009 7.50016e-010 -1.5975e-009 -2.22167 -0.733487 0.20892 -2.03217e-016 0 -3.88251e-019 10.5095 -33.2058 22.106 -0.269969 37.0203 0.934341 -2.6454 -12.124 -7.40664 2.03217e-016 0 3.88251e-019 -5.81288 -19.7482 -11.2322 -0.0699537 29.6998 -0.779767 4.49024 -14.8111 14.481 
51.7063 79.8313 38.3906 3.12069 13.7858 -14.5926 -4.00516 -25.9191 -8.52668 1.89296 10.4296 -2.52027 0.556086 2.03861 5.28435 -1.39905 3.89861 10.1586 -0 0 0 -0 0 0 -9.4665e-014 -2.66767e-013 4.32605e-013 65.2218 45.1877 -6.90595 23.2987 -50.251 -105.433 -0.141386 10.6583 1.51563 5.34527e-010 -1.01531e-008 -2.3488e-009 9.01415e-010 -1.7612e-008 -4.06836e-009 5.34536e-010 -1.01531e-008 -2.3488e-009 7.73091 5.47488 0.417314 5.34527e-010 -1.01531e-008 -2.3488e-009 2.90554 0.965183 0.102902 5.3453e-010 -1.01531e-008 -2.3488e-009 10.2786 0.731801 0.0259123 5.34521e-010 -1.01531e-008 -2.34879e-009 2.22167 -0.733487 -0.20892 -9.47333e-014 -2.66772e-013 4.32506e-013 -21.8432 37.5339 -62.482 17.0546 -55.3152 -120.962 4.60268 -50.3679 9.76985 2.34946e-009 6.98507e-010 -1.36435e-009 4.10326e-009 1.27335e-009 -2.24222e-009 2.34946e-009 6.98502e-010 -1.36434e-009 -7.73091 5.47488 -0.417314 2.34946e-009 6.98503e-010 -1.36435e-009 -2.90554 0.965183 -0.102902 2.34945e-009 6.98504e-010 -1.36435e-009 -10.2786 0.731801 -0.0259123 2.34947e-009 6.98507e-010 -1.36435e-009 -2.22167 -0.733487 0.20892 -2.03217e-016 0 -3.88251e-019 10.5171 -33.1374 21.9966 -0.267576 36.8599 0.930849 -2.58449 -12.1182 -7.20076 2.03217e-016 0 3.88251e-019 -5.74348 -19.639 -11.2853 -0.0741095 29.5298 -0.775749 4.4956 -14.7134 14.5952 
51.6235 79.8651 38.3844 3.07481 13.8388 -14.6603 -3.93392 -26.0077 -8.51414 1.91687 10.4207 -2.5221 0.53936 2.04309 5.25967 -1.35326 3.91571 10.1121 -0 0 0 -0 0 0 -1.2288e-013 -3.07874e-013 3.61904e-013 65.5025 44.9382 -7.20389 23.3121 -50.2355 -105.393 -0.140272 10.6166 1.50956 4.36407e-010 -9.37187e-009 -2.12733e-009 7.34201e-010 -1.62519e-008 -3.68409e-009 4.36415e-010 -9.37189e-009 -2.12733e-009 7.73091 5.47488 0.417314 4.36407e-010 -9.37189e-009 -2.12733e-009 2.90554 0.965183 0.102902 4.36411e-010 -9.37187e-009 -2.12733e-009 10.2786 0.731801 0.0259123 4.36402e-010 -9.37187e-009 -2.12732e-009 2.22167 -0.733487 -0.20892 -1.22952e-013 -3.07878e-013 3.6177e-013 -21.785 37.5737 -62.5697 17.0723 -55.3049 -120.924 4.58512 -50.3027 9.74704 1.93712e-009 5.50637e-010 -1.01491e-009 3.3782e-009 1.00699e-009 -1.65881e-009 1.93712e-009 5.50632e-010 -1.0149e-009 -7.73091 5.47488 -0.417314 1.93712e-009 5.50635e-010 -1.01491e-009 -2.90554 0.965183 -0.102902 1.93711e-009 5.50636e-010 -1.01491e-009 -10.2786 0.731801 -0.0259123 1.93713e-009 5.50639e-010 -1.01492e-009 -2.22167 -0.733487 0.20892 -2.03217e-016 0 -3.88251e-019 10.5589 -33.1004 21.8709 -0.265077 36.6862 0.925777 -2.51387 -12.1104 -6.96269 2.03217e-016 0 3.88251e-019 -5.63362 -19.5911 -11.3305 -0.0760001 29.4089 -0.772297 4.50936 -14.6382 14.7094 
51.5411 79.8951 38.3768 3.00027 13.9229 -14.7184 -3.81234 -26.1323 -8.49177 1.92534 10.4196 -2.52203 0.495769 2.05511 5.23038 -1.26307 3.93242 10.0613 -0 0 0 -0 0 0 -1.64754e-013 -3.79292e-013 2.27904e-013 65.7696 44.7158 -7.48284 23.3237 -50.2221 -105.358 -0.138898 10.5648 1.50202 3.30364e-010 -7.82326e-009 -1.73033e-009 5.54697e-010 -1.35611e-008 -2.99579e-009 3.30369e-010 -7.82328e-009 -1.73033e-009 7.73091 5.47488 0.417314 3.30364e-010 -7.82327e-009 -1.73032e-009 2.90554 0.965183 0.102902 3.30369e-010 -7.82327e-009 -1.73033e-009 10.2786 0.731801 0.0259123 3.30361e-010 -7.82326e-009 -1.73032e-009 2.22167 -0.733487 -0.20892 -1.6483e-013 -3.79295e-013 2.27708e-013 -21.6995 37.6148 -62.6657 17.0889 -55.2953 -120.888 4.56776 -50.2381 9.72447 1.19217e-009 3.18731e-010 -5.21456e-010 2.07425e-009 5.87717e-010 -8.42643e-010 1.19217e-009 3.18726e-010 -5.21449e-010 -7.73091 5.47488 -0.417314 1.19218e-009 3.18731e-010 -5.21468e-010 -2.90554 0.965183 -0.102902 1.19217e-009 3.18731e-010 -5.21459e-010 -10.2786 0.731801 -0.0259123 1.19218e-009 3.18733e-010 -5.21467e-010 -2.22167 -0.733487 0.20892 -2.03217e-016 0 -3.88251e-019 10.6253 -33.087 21.7278 -0.26251 36.5009 0.919469 -2.43564 -12.1014 -6.6993 2.03217e-016 0 3.88251e-019 -5.49261 -19.591 -11.3731 -0.0761615 29.3257 -0.769208 4.52926 -14.58 14.8228 
51.4599 79.9217 38.3651 2.91931 14.0287 -14.7804 -3.66821 -26.2858 -8.45866 1.92494 10.4237 -2.51913 0.449599 2.06223 5.20065 -1.16678 3.96556 10.0102 -0 0 0 -0 0 0 -2.00037e-013 -4.42455e-013 8.33688e-014 66.0177 44.5197 -7.73799 23.3324 -50.2121 -105.332 -0.138054 10.5329 1.49738 2.43632e-010 -5.98929e-009 -1.28023e-009 4.08937e-010 -1.0377e-008 -2.21576e-009 2.43634e-010 -5.98931e-009 -1.28023e-009 7.73091 5.47488 0.417314 2.43633e-010 -5.98929e-009 -1.28022e-009 2.90554 0.965183 0.102902 2.43639e-010 -5.98929e-009 -1.28022e-009 10.2786 0.731801 0.0259123 2.43632e-010 -5.98929e-009 -1.28022e-009 2.22167 -0.733487 -0.20892 -2.00121e-013 -4.42457e-013 8.31098e-014 -21.5968 37.6583 -62.7636 17.1006 -55.2885 -120.862 4.55283 -50.1822 9.70503 3.9965e-010 8.174e-011 -3.54682e-011 6.88737e-010 1.5868e-010 -4.15988e-011 3.99646e-010 8.17363e-011 -3.54631e-011 -7.73091 5.47488 -0.417314 3.99657e-010 8.1743e-011 -3.54878e-011 -2.90554 0.965183 -0.102902 3.99643e-010 8.17419e-011 -3.5474e-011 -10.2786 0.731801 -0.0259123 3.99655e-010 8.17437e-011 -3.54826e-011 -2.22167 -0.733487 0.20892 -2.03217e-016 0 -3.88251e-019 10.7015 -33.0969 21.58 -0.260008 36.316 0.912856 -2.35239 -12.0963 -6.41623 2.03217e-016 0 3.88251e-019 -5.34099 -19.6208 -11.4112 -0.0756329 29.2592 -0.766401 4.55249 -14.5319 14.9362 
51.3812 79.9452 38.3487 2.85422 14.1469 -14.8597 -3.52929 -26.4612 -8.41389 1.92226 10.4305 -2.51248 0.425109 2.05201 5.17463 -1.10261 4.03194 9.96246 -0 0 0 -0 0 0 -2.08481e-013 -4.58794e-013 -1.89342e-014 66.2408 44.3489 -7.96455 23.3372 -50.2065 -105.318 -0.138513 10.551 1.50001 2.03448e-010 -4.35201e-009 -8.99451e-010 3.42954e-010 -7.53713e-009 -1.55634e-009 2.03447e-010 -4.35202e-009 -8.99461e-010 7.73091 5.47488 0.417314 2.03448e-010 -4.352e-009 -8.99445e-010 2.90554 0.965183 0.102902 2.03455e-010 -4.352e-009 -8.99451e-010 10.2786 0.731801 0.0259123 2.03449e-010 -4.35201e-009 -8.99445e-010 2.22167 -0.733487 -0.20892 -2.08583e-013 -4.58796e-013 -1.92324e-014 -21.4867 37.7056 -62.857 17.1038 -55.2865 -120.855 4.5425 -50.1435 9.69158 -1.55419e-010 -8.13809e-011 2.91574e-010 -2.81018e-010 -1.36983e-010 4.96434e-010 -1.55423e-010 -8.1384e-011 2.91577e-010 -7.73091 5.47488 -0.417314 -1.5541e-010 -8.13763e-011 2.91549e-010 -2.90554 0.965183 -0.102902 -1.55425e-010 -8.13777e-011 2.91567e-010 -10.2786 0.731801 -0.0259123 -1.55414e-010 -8.13761e-011 2.91558e-010 -2.22167 -0.733487 0.20892 -2.03217e-016 0 -3.88251e-019 10.7724 -33.1297 21.4403 -0.257686 36.1434 0.906854 -2.26659 -12.1003 -6.11912 2.03217e-016 0 3.88251e-019 -5.19927 -19.6627 -11.4429 -0.0754476 29.1881 -0.7638 4.57621 -14.4869 15.0505 
51.3063 79.9665 38.3291 2.80448 14.2858 -14.9625 -3.38796 -26.6688 -8.35275 1.91522 10.4438 -2.50097 0.429669 2.01638 5.15281 -1.08102 4.14376 9.91782 -0 0 0 -0 0 0 -1.78158e-013 -4.06815e-013 -7.54306e-014 66.4376 44.2041 -8.15886 23.3383 -50.2052 -105.315 -0.140872 10.6407 1.51305 2.52798e-010 -2.81455e-009 -5.82104e-010 4.3109e-010 -4.87605e-009 -1.00782e-009 2.52796e-010 -2.81456e-009 -5.82114e-010 7.73091 5.47488 0.417314 2.52797e-010 -2.81454e-009 -5.82099e-010 2.90554 0.965183 0.102902 2.52804e-010 -2.81455e-009 -5.82105e-010 10.2786 0.731801 0.0259123 2.52798e-010 -2.81455e-009 -5.82099e-010 2.22167 -0.733487 -0.20892 -1.78298e-013 -4.06817e-013 -7.57339e-014 -21.3609 37.7584 -62.9474 17.0958 -55.2912 -120.872 4.53688 -50.1224 9.68425 -4.3103e-010 -1.5461e-010 4.14062e-010 -7.60647e-010 -2.70278e-010 6.94751e-010 -4.31033e-010 -1.54612e-010 4.14063e-010 -7.73091 5.47488 -0.417314 -4.31021e-010 -1.54605e-010 4.14034e-010 -2.90554 0.965183 -0.102902 -4.31037e-010 -1.54606e-010 4.14056e-010 -10.2786 0.731801 -0.0259123 -4.31026e-010 -1.54604e-010 4.14048e-010 -2.22167 -0.733487 0.20892 -2.03217e-016 0 -3.88251e-019 10.8455 -33.1943 21.3165 -0.255532 35.9833 0.901307 -2.17678 -12.1139 -5.8023 2.03217e-016 0 3.88251e-019 -5.06316 -19.728 -11.4657 -0.0754247 29.1178 -0.76151 4.60211 -14.4477 15.1675 
51.2361 79.9861 38.3073 2.76073 14.4467 -15.0808 -3.234 -26.9083 -8.27709 1.90159 10.4633 -2.48538 0.450009 1.96354 5.1332 -1.08139 4.2895 9.87472 -0 0 0 -0 0 0 -1.22043e-013 -3.10824e-013 -1.10763e-013 66.6123 44.0855 -8.32516 23.3361 -50.2077 -105.321 -0.144665 10.7813 1.53353 3.6525e-010 -1.19496e-009 -2.75738e-010 6.28105e-010 -2.07671e-009 -4.79076e-010 3.65247e-010 -1.19496e-009 -2.75748e-010 7.73091 5.47488 0.417314 3.65246e-010 -1.19495e-009 -2.75734e-010 2.90554 0.965183 0.102902 3.65253e-010 -1.19496e-009 -2.75739e-010 10.2786 0.731801 0.0259123 3.65247e-010 -1.19496e-009 -2.75734e-010 2.22167 -0.733487 -0.20892 -1.22237e-013 -3.10826e-013 -1.11052e-013 -21.2176 37.8156 -63.0373 17.0789 -55.301 -120.909 4.53492 -50.115 9.68169 -5.67867e-010 -1.78377e-010 4.14522e-010 -9.95976e-010 -3.14486e-010 6.89092e-010 -5.67868e-010 -1.7838e-010 4.14521e-010 -7.73091 5.47488 -0.417314 -5.67859e-010 -1.78373e-010 4.14493e-010 -2.90554 0.965183 -0.102902 -5.67872e-010 -1.78374e-010 4.14519e-010 -10.2786 0.731801 -0.0259123 -5.67861e-010 -1.7837e-010 4.14514e-010 -2.22167 -0.733487 0.20892 -2.03217e-016 0 -3.88251e-019 10.9246 -33.2878 21.2002 -0.253492 35.8303 0.895854 -2.08213 -12.1346 -5.46509 2.03217e-016 0 3.88251e-019 -4.925 -19.8209 -11.4814 -0.0751693 29.0558 -0.759527 4.63096 -14.4166 15.2862 
